<?xml version="1.0" standalone="no"?>
<!DOCTYPE svg PUBLIC "-//W3C//DTD SVG 20010904//EN"
 "http://www.w3.org/TR/2001/REC-SVG-20010904/DTD/svg10.dtd">
<svg version="1.0" xmlns="http://www.w3.org/2000/svg"
 width="1200.000000pt" height="1200.000000pt" viewBox="0 0 1200.000000 1200.000000"
 preserveAspectRatio="xMidYMid meet">
<metadata>
Created by potrace 1.14, written by Peter Selinger 2001-2017
</metadata>
<g transform="translate(0.000000,1200.000000) scale(0.100000,-0.100000)"
fill="#000000" stroke="none">
<path d="M3815 9210 c-38 -14 -58 -47 -52 -84 5 -30 101 -130 681 -710 372
-372 682 -676 689 -677 6 0 20 -2 30 -4 10 -2 31 8 47 22 34 28 39 66 14 101
-20 29 -1342 1352 -1352 1353 -4 0 -14 2 -22 3 -8 2 -24 0 -35 -4z"/>
<path d="M8120 9203 c-12 -9 -324 -317 -692 -685 -646 -647 -668 -671 -666
-705 3 -46 44 -82 87 -77 25 3 148 121 706 679 414 414 677 685 681 700 9 38
-14 84 -45 91 -14 3 -31 7 -37 9 -7 2 -22 -4 -34 -12z"/>
<path d="M5568 7725 c0 0 -2 -28 -3 -62 l-2 -63 64 0 63 0 0 60 c0 33 -3 60
-7 61 -6 0 -107 4 -115 4z"/>
<path d="M5827 7722 c-13 -3 -16 -15 -16 -63 l1 -59 62 0 62 0 2 60 c1 41 -3
60 -11 61 -58 3 -86 4 -100 1z"/>
<path d="M6078 7722 c-13 -2 -16 -16 -16 -63 l1 -59 62 0 63 0 0 60 c0 33 -3
60 -7 61 -19 3 -90 4 -103 1z"/>
<path d="M6327 7722 c-15 -3 -17 -13 -16 -63 l2 -59 62 0 62 0 0 60 c0 35 -5
60 -11 61 -41 3 -84 4 -99 1z"/>
<path d="M5438 7526 c-3 -9 -2 -1067 1 -1102 1 -17 1118 -18 1123 -1 3 10 2
1028 -1 1093 l-1 22 -560 -1 c-394 0 -560 -3 -562 -11z m277 -138 c15 -14 28
-38 31 -59 5 -30 1 -42 -23 -69 -25 -28 -36 -33 -68 -32 -92 4 -121 111 -47
170 25 19 78 14 107 -10z m660 -672 c49 -21 75 -78 54 -120 -43 -84 -161 -68
-175 24 -8 47 32 98 84 109 1 1 18 -5 37 -13z"/>
<path d="M4153 7458 c-39 -10 -471 -430 -509 -494 -26 -44 -30 -86 -13 -131
12 -34 454 -480 489 -495 38 -16 82 -17 120 -1 43 17 474 443 501 495 23 45
24 89 4 131 -16 33 -431 452 -475 480 -33 20 -77 26 -117 15z m251 -355 l207
-207 -213 -213 -213 -212 -209 209 -209 210 209 210 c115 115 212 210 215 210
3 0 99 -93 213 -207z"/>
<path d="M7774 7459 c-36 -10 -491 -455 -518 -506 -20 -39 -21 -83 -2 -126 18
-42 477 -497 502 -498 10 0 28 -2 38 -4 57 -11 79 6 322 247 155 154 244 250
252 271 15 41 15 77 1 114 -11 31 -426 453 -474 483 -37 23 -80 29 -121 19z
m250 -355 l209 -206 -214 -214 -213 -213 -210 209 -209 210 209 210 c115 115
211 210 214 210 3 0 99 -93 214 -206z"/>
<path d="M5303 7412 l-53 -3 0 -62 0 -62 37 2 c21 1 50 2 64 2 24 1 25 4 24
56 0 30 -5 58 -10 62 -6 5 -34 7 -62 5z"/>
<path d="M6680 7412 l-56 -3 0 -59 c0 -61 1 -62 46 -62 85 0 80 -4 80 61 0 33
-3 61 -7 63 -5 2 -33 2 -63 0z"/>
<path d="M5261 7162 c-7 -2 -11 -28 -11 -65 l0 -62 52 2 c29 1 58 2 63 2 6 1
10 28 11 61 0 48 -3 60 -15 61 -9 0 -32 2 -52 3 -20 1 -41 0 -48 -2z"/>
<path d="M6637 7160 c-15 -6 -17 -120 -2 -121 5 0 34 -1 63 -2 l52 -2 0 63 c0
34 -4 62 -10 63 -35 4 -93 3 -103 -1z"/>
<path d="M5283 6912 l-33 -3 0 -59 0 -58 60 -4 c33 -1 60 -1 61 2 7 36 3 120
-5 121 -6 0 -20 1 -31 2 -11 1 -35 1 -52 -1z"/>
<path d="M6643 6910 c-16 -4 -19 -14 -17 -55 1 -27 2 -54 3 -60 0 -5 18 -9 38
-8 21 1 48 2 61 2 20 1 22 6 22 60 l0 59 -44 4 c-25 1 -53 1 -63 -2z"/>
<path d="M5261 6662 c-6 -2 -11 -31 -11 -65 l0 -62 54 1 c30 1 59 5 64 8 7 4
9 88 3 116 -1 6 -94 7 -110 2z"/>
<path d="M6650 6660 c-21 -5 -24 -12 -26 -59 -1 -57 5 -64 54 -63 76 0 72 -3
72 62 0 33 -3 60 -7 61 -30 4 -73 4 -93 -1z"/>
<path d="M5563 6290 l0 -60 62 0 63 0 1 60 1 60 -63 0 -63 0 -1 -60z"/>
<path d="M5811 6292 l-1 -60 32 -3 c18 -2 47 -3 65 -1 l31 3 -1 57 -2 57 -61
3 -61 3 -2 -59z"/>
<path d="M6067 6343 c-3 -5 -5 -32 -5 -60 -1 -58 -5 -55 78 -55 17 0 34 1 39
1 5 1 9 28 9 61 l-1 60 -58 0 c-32 0 -60 -3 -62 -7z"/>
<path d="M6317 6343 c-3 -5 -5 -31 -5 -60 -1 -58 2 -60 78 -55 l47 4 1 59 0
59 -58 0 c-33 0 -61 -3 -63 -7z"/>
<path d="M5134 6210 c-12 -5 -326 -313 -698 -685 -704 -704 -690 -688 -667
-748 12 -30 62 -50 96 -37 22 8 1283 1261 1348 1338 33 41 34 72 5 107 -26 29
-53 37 -84 25z"/>
<path d="M6820 6213 c-37 -13 -60 -47 -58 -82 2 -32 62 -94 680 -713 373 -373
681 -678 685 -679 5 0 19 -2 33 -3 16 -2 34 7 52 25 29 29 35 57 18 89 -14 25
-1348 1360 -1359 1360 -5 0 -15 2 -23 4 -7 3 -20 2 -28 -1z"/>
<path d="M3018 3765 c-2 -2 -29 -5 -61 -7 -41 -2 -58 -7 -61 -18 -3 -13 0
-903 3 -922 0 -5 42 -8 91 -8 l90 0 0 180 0 180 28 0 c26 -1 30 -8 90 -163 35
-89 67 -169 71 -177 6 -12 32 -16 110 -18 l103 -3 -8 23 c-3 13 -22 56 -40 96
-19 41 -34 76 -34 79 0 2 -14 35 -31 71 -51 109 -52 118 -18 143 39 27 76 93
87 154 12 69 5 190 -14 247 -18 54 -76 111 -133 130 -33 10 -264 21 -273 13z
m214 -182 c16 -16 20 -34 20 -94 0 -41 -1 -81 -4 -89 -13 -50 -47 -70 -117
-70 l-51 0 0 134 c0 152 -3 147 83 142 32 -2 55 -10 69 -23z"/>
<path d="M8422 3750 c-62 -28 -89 -92 -91 -222 -1 -38 -1 -38 -44 -38 l-43 0
0 -75 0 -75 43 0 43 0 0 -265 0 -265 90 0 90 0 0 265 0 265 75 0 75 0 0 75 0
75 -76 0 -76 0 4 56 c3 32 11 60 19 65 8 5 45 8 84 7 l69 -3 1 67 c0 51 -4 69
-15 74 -8 4 -58 8 -110 10 -77 3 -103 0 -138 -16z"/>
<path d="M4420 3680 l0 -80 98 0 97 0 0 80 0 80 -97 0 -98 0 0 -80z"/>
<path d="M7070 3757 c-3 -3 -21 -7 -40 -10 -116 -15 -190 -106 -194 -241 -6
-162 51 -243 197 -282 95 -25 128 -68 122 -158 -7 -85 -55 -111 -185 -102 -44
3 -91 8 -104 12 l-25 6 0 -81 1 -80 36 -8 c69 -15 294 -8 332 9 50 23 96 75
114 131 35 105 21 267 -29 333 -30 39 -95 79 -145 89 -76 16 -109 35 -121 72
-14 45 -6 96 21 125 17 19 32 23 93 25 40 1 94 -3 121 -8 27 -5 51 -7 53 -5 2
2 5 36 7 76 2 69 1 72 -24 82 -27 11 -222 24 -230 15z"/>
<path d="M8847 3643 c-2 -5 -3 -41 -2 -80 l1 -73 -43 0 c-27 0 -43 -5 -44 -12
-1 -18 -1 -120 0 -135 1 -8 17 -13 44 -13 l42 0 1 -177 c0 -211 4 -243 35
-288 34 -50 77 -64 182 -61 48 2 91 7 95 10 4 4 7 41 8 81 l1 73 -24 -9 c-38
-14 -89 -11 -104 7 -10 12 -14 60 -14 190 l-1 174 68 0 68 0 0 80 0 80 -68 0
-68 0 1 68 c1 37 -1 73 -3 80 -5 13 -168 18 -175 5z"/>
<path d="M5074 3481 c-23 -11 -45 -24 -48 -30 -12 -19 -26 -12 -26 14 0 24 -2
25 -75 25 l-75 0 0 -37 c-1 -65 -1 -545 -1 -595 l1 -48 90 0 91 0 -1 153 c-2
314 -2 313 23 343 17 20 35 28 69 31 42 4 48 2 65 -23 16 -25 18 -54 20 -249
1 -121 2 -228 3 -237 0 -16 11 -18 91 -18 l90 0 -4 273 c-3 259 -5 276 -26
320 -32 65 -73 88 -169 93 -61 3 -86 0 -118 -15z"/>
<path d="M5781 3488 c-81 -22 -140 -87 -166 -185 -16 -59 -21 -230 -9 -288 3
-16 7 -34 8 -40 18 -81 77 -145 151 -164 27 -7 244 -5 275 2 14 3 28 6 33 6 4
1 7 35 7 77 l0 76 -27 -7 c-16 -5 -68 -9 -117 -11 -100 -3 -128 7 -145 58 -25
70 -30 68 165 68 l175 0 -2 102 c-3 155 -29 232 -94 277 -58 40 -166 52 -254
29z m132 -147 c28 -11 35 -27 42 -90 l4 -41 -89 0 -88 0 4 36 c11 86 58 121
127 95z"/>
<path d="M6584 3492 c-12 -4 -37 -20 -55 -35 l-34 -28 -5 28 c-5 28 -6 28 -79
28 l-73 0 0 -320 c0 -176 1 -328 1 -337 1 -16 12 -18 89 -18 l88 0 1 187 c2
270 21 318 129 318 l54 0 0 86 c0 81 -1 87 -22 93 -28 7 -66 6 -94 -2z"/>
<path d="M3662 3213 c3 -273 3 -279 27 -321 24 -41 59 -72 91 -80 8 -2 41 -6
73 -9 60 -5 119 11 159 45 16 13 19 12 27 -12 10 -25 14 -26 81 -26 l70 0 0
340 0 340 -89 0 -90 0 -3 -241 -3 -241 -28 -24 c-32 -28 -82 -31 -112 -8 -19
14 -20 28 -22 197 -2 100 -3 212 -3 250 l0 67 -91 0 -91 0 4 -277z"/>
<path d="M4429 3463 c-1 -40 -1 -548 0 -605 l1 -48 89 0 88 0 0 340 1 340 -89
0 -89 0 -1 -27z"/>
<path d="M7669 3473 c-63 -21 -106 -57 -134 -114 -14 -27 -23 -49 -21 -49 3 0
0 -15 -5 -32 -10 -37 -13 -179 -4 -246 9 -66 48 -145 89 -179 22 -17 59 -35
89 -41 47 -11 180 -10 217 1 121 35 171 126 175 322 4 205 -47 300 -182 341
-58 18 -165 16 -224 -3z m181 -153 c33 -33 42 -69 42 -171 1 -152 -25 -199
-107 -199 -49 1 -84 28 -95 73 -8 38 -6 208 3 247 16 63 113 94 157 50z"/>
</g>
</svg>
